HIERARCHY
ROOT Hips
{
	OFFSET 0.000000 0.000000 0.000000
	CHANNELS 6 Xposition Yposition Zposition Zrotation Yrotation Xrotation 
	JOINT LHipJoint
	{
		OFFSET 0.000000 0.000000 0.000000
		CHANNELS 3 Zrotation Yrotation Xrotation
		JOINT LeftUpLeg
		{
			OFFSET 1.363060 -1.794630 0.839290
			CHANNELS 3 Zrotation Yrotation Xrotation
			JOINT LeftLeg
			{
				OFFSET 2.448110 -6.726130 0.000000
				CHANNELS 3 Zrotation Yrotation Xrotation
				JOINT LeftFoot
				{
					OFFSET 2.562200 -7.039590 0.000000
					CHANNELS 3 Zrotation Yrotation Xrotation
					JOINT LeftToeBase
					{
						OFFSET 0.157640 -0.433110 2.322550
						CHANNELS 3 Zrotation Yrotation Xrotation
						End Site
						{
							OFFSET 0.000000 0.000000 0.000000
						}
					}
				}
			}
		}
	}
	JOINT RHipJoint
	{
		OFFSET 0.000000 0.000000 0.000000
		CHANNELS 3 Zrotation Yrotation Xrotation
		JOINT RightUpLeg
		{
			OFFSET -1.305520 -1.794630 0.839290
			CHANNELS 3 Zrotation Yrotation Xrotation
			JOINT RightLeg
			{
				OFFSET -2.542530 -6.985550 0.000000
				CHANNELS 3 Zrotation Yrotation Xrotation
				JOINT RightFoot
				{
					OFFSET -2.568260 -7.056230 0.000000
					CHANNELS 3 Zrotation Yrotation Xrotation
					JOINT RightToeBase
					{
						OFFSET -0.164730 -0.452590 2.363150
						CHANNELS 3 Zrotation Yrotation Xrotation
						End Site
						{
							OFFSET 0.000000 0.000000 0.000000
						}
					}
				}
			}
		}
	}
	JOINT LowerBack
	{
		OFFSET 0.000000 0.000000 0.000000
		CHANNELS 3 Zrotation Yrotation Xrotation
		JOINT Spine
		{
			OFFSET 0.028270 2.035590 -0.193380
			CHANNELS 3 Zrotation Yrotation Xrotation
			JOINT Spine1
			{
				OFFSET 0.056720 2.048850 -0.042750
				CHANNELS 3 Zrotation Yrotation Xrotation
				JOINT Neck
				{
					OFFSET 0.000000 0.000000 0.000000
					CHANNELS 3 Zrotation Yrotation Xrotation
					JOINT Neck1
					{
						OFFSET -0.054170 1.746240 0.172020
						CHANNELS 3 Zrotation Yrotation Xrotation
						JOINT Head
						{
							OFFSET 0.104070 1.761360 -0.123970
							CHANNELS 3 Zrotation Yrotation Xrotation
							End Site
							{
								OFFSET 0.000000 0.000000 0.000000
							}
						}
					}
				}
				JOINT LeftShoulder
				{
					OFFSET 0.000000 0.000000 0.000000
					CHANNELS 3 Zrotation Yrotation Xrotation
					JOINT LeftArm
					{
						OFFSET 3.362410 1.200890 -0.311210
						CHANNELS 3 Zrotation Yrotation Xrotation
						JOINT LeftForeArm
						{
							OFFSET 4.983000 -0.000000 -0.000000
							CHANNELS 3 Zrotation Yrotation Xrotation
							JOINT LeftHand
							{
								OFFSET 3.483560 -0.000000 -0.000000
								CHANNELS 3 Zrotation Yrotation Xrotation
								JOINT LeftFingerBase
								{
									OFFSET 0.000000 0.000000 0.000000
									CHANNELS 3 Zrotation Yrotation Xrotation
									JOINT LeftHandIndex1
									{
										OFFSET 0.715260 -0.000000 -0.000000
										CHANNELS 3 Zrotation Yrotation Xrotation
										End Site
										{
											OFFSET 0.000000 0.000000 0.000000
										}
									}
								}
								JOINT LThumb
								{
									OFFSET 0.000000 0.000000 0.000000
									CHANNELS 3 Zrotation Yrotation Xrotation
									End Site
									{
										OFFSET 0.000000 0.000000 0.000000
									}
								}
							}
						}
					}
				}
				JOINT RightShoulder
				{
					OFFSET 0.000000 0.000000 0.000000
					CHANNELS 3 Zrotation Yrotation Xrotation
					JOINT RightArm
					{
						OFFSET -3.136600 1.374050 -0.404650
						CHANNELS 3 Zrotation Yrotation Xrotation
						JOINT RightForeArm
						{
							OFFSET -5.241900 -0.000000 -0.000000
							CHANNELS 3 Zrotation Yrotation Xrotation
							JOINT RightHand
							{
								OFFSET -3.444170 -0.000000 -0.000000
								CHANNELS 3 Zrotation Yrotation Xrotation
								JOINT RightFingerBase
								{
									OFFSET 0.000000 0.000000 0.000000
									CHANNELS 3 Zrotation Yrotation Xrotation
									JOINT RightHandIndex1
									{
										OFFSET -0.622530 -0.000000 -0.000000
										CHANNELS 3 Zrotation Yrotation Xrotation
										End Site
										{
											OFFSET 0.000000 0.000000 0.000000
										}
									}
								}
								JOINT RThumb
								{
									OFFSET 0.000000 0.000000 0.000000
									CHANNELS 3 Zrotation Yrotation Xrotation
									End Site
									{
										OFFSET 0.000000 0.000000 0.000000
									}
								}
							}
						}
					}
				}
			}
		}
	}
}
MOTION
Frames: 7
Frame Time: 0.008333
18.612873 16.297403 2.385769 50.619194 -87.945628 -49.988955 -10.222545 2.718508 -0.509346 -4.128459 15.999577 -13.999159 -1.973980 1.382026 37.523767 2.684281 13.849417 -22.683715 -4.145901 0.000000 -50.935699 11.194288 -1.246589 -2.812434 -0.056761 -23.136515 -11.778970 1.958671 -1.973563 38.479875 -1.803409 -5.252410 -22.114302 1.760601 0.000000 -72.640400 -1.343274 -2.887095 1.447944 -0.570199 -2.775785 -2.109806 -4.555185 -2.798030 2.618223 9.746575 -20.270389 -11.064031 -0.972561 -0.017274 -0.884339 0.000000 0.000000 0.000000 2.889632 16.782998 0.651310 -73.480686 14.296836 0.591729 -2.620933 -41.580249 -0.008677 7.849225 1.977558 0.137095 -0.168115 0.034060 0.000000 0.000000 0.000000 0.000000 0.000000 0.000000 0.000000 8.390894 -16.986267 0.236129 71.134908 -0.943949 -6.773567 2.596300 33.709230 -0.000199 -10.438252 6.903901 -0.654540 0.188463 -0.136465 -0.000000 0.000000 0.000000 0.000000 0.000000 0.000000 0.000000 
18.591275 16.253000 2.388135 51.851011 -87.906240 -50.955234 -10.217414 2.684198 -0.534430 -4.326308 15.833564 -14.752161 -1.959814 1.464339 38.780098 2.752496 14.109694 -23.272458 -4.366700 -0.000000 -50.784700 11.215651 -1.215463 -2.807904 -0.025864 -22.994854 -12.588467 1.950611 -2.084201 39.772734 -1.844385 -5.344661 -22.730861 1.858600 -0.000001 -72.594400 -1.356478 -2.900410 1.480462 -0.571168 -2.785882 -2.091780 -4.567833 -2.806844 2.692602 9.804443 -20.338514 -11.201236 -0.962294 -0.014001 -0.922968 0.000000 0.000000 0.000000 2.698179 17.136235 0.682370 -74.228905 14.479750 0.238390 -2.645927 -41.086852 -0.008347 7.953411 1.950760 0.137078 -0.168023 0.031560 -0.000000 0.000000 0.000000 0.000000 0.000000 0.000000 0.000000 8.461642 -17.089243 0.250926 71.898765 -1.193201 -7.195560 2.631560 33.047146 0.000113 -10.611016 6.953076 -0.669751 0.189719 -0.134155 -0.000000 0.000000 0.000000 0.000000 0.000000 0.000000 0.000000 
18.572050 16.202686 2.390955 52.911010 -87.869192 -51.754839 -10.217321 2.643678 -0.571391 -4.524706 15.644624 -15.571339 -1.936279 1.562426 40.195144 2.829675 14.427457 -23.887535 -4.613200 0.000000 -50.654700 11.238132 -1.179400 -2.816998 0.007750 -22.848951 -13.452224 1.935734 -2.210059 41.206103 -1.887534 -5.452862 -23.371696 1.964500 -0.000000 -72.579000 -1.362587 -2.914940 1.544732 -0.571220 -2.796762 -2.068581 -4.583480 -2.816013 2.764023 9.871011 -20.393359 -11.347619 -0.952466 -0.010535 -0.964758 0.000000 0.000000 0.000000 2.486963 17.481223 0.718249 -74.994080 14.650296 -0.116067 -2.667133 -40.600789 -0.008010 8.069677 1.923192 0.137259 -0.167748 0.029093 -0.000000 0.000000 0.000000 0.000000 0.000000 0.000000 0.000000 8.539128 -17.178877 0.272751 72.692858 -1.429626 -7.658581 2.667312 32.346131 0.000453 -10.770176 7.009625 -0.684965 0.190679 -0.131867 -0.000000 0.000000 0.000000 0.000000 0.000000 0.000000 0.000000 
18.553964 16.146234 2.393792 53.929055 -87.824499 -52.506665 -10.218422 2.601375 -0.612522 -4.742633 15.436270 -16.465793 -1.903801 1.673517 41.751389 2.915751 14.801206 -24.521990 -4.885800 -0.000000 -50.556300 11.265374 -1.139060 -2.831906 0.033305 -22.710402 -14.386233 1.914382 -2.349629 42.775705 -1.930668 -5.563783 -24.037451 2.075800 0.000000 -72.597400 -1.376672 -2.929945 1.620020 -0.573248 -2.807425 -2.042660 -4.600822 -2.824724 2.838475 9.949324 -20.440482 -11.502618 -0.942399 -0.006848 -1.009344 0.000000 0.000000 0.000000 2.277408 17.844549 0.757528 -75.770954 14.781527 -0.422649 -2.686322 -40.077876 -0.007658 8.211031 1.888619 0.137240 -0.167487 0.026621 -0.000000 0.000000 0.000000 0.000000 0.000000 0.000000 0.000000 8.630570 -17.261458 0.297441 73.506007 -1.667825 -8.135379 2.701908 31.629068 0.000760 -10.918749 7.043750 -0.697480 0.191426 -0.129394 -0.000000 0.000000 0.000000 0.000000 0.000000 0.000000 0.000000 
18.538168 16.083303 2.397144 54.717427 -87.787841 -53.036344 -10.226242 2.552889 -0.666952 -4.950501 15.222780 -17.415894 -1.861793 1.799133 43.445513 3.008396 15.219382 -25.180074 -5.183900 0.000000 -50.460800 11.292871 -1.095760 -2.860132 0.066447 -22.568497 -15.359417 1.885190 -2.502535 44.464524 -1.975135 -5.687832 -24.721507 2.194500 -0.000000 -72.632300 -1.379137 -2.944626 1.727530 -0.573633 -2.817505 -2.011773 -4.621153 -2.832437 2.908956 10.033750 -20.470404 -11.660951 -0.933657 -0.003146 -1.055504 0.000000 0.000000 0.000000 2.052528 18.190439 0.800424 -76.562822 14.902045 -0.719433 -2.700744 -39.557286 -0.007306 8.371840 1.858809 0.137720 -0.167071 0.024110 -0.000000 0.000000 0.000000 0.000000 0.000000 0.000000 0.000000 8.727758 -17.327145 0.328566 74.339457 -1.893088 -8.639356 2.736699 30.872614 0.001099 -11.047048 7.082875 -0.709297 0.191848 -0.126913 -0.000000 0.000000 0.000000 0.000000 0.000000 0.000000 0.000000 
18.523057 16.013919 2.400425 55.462026 -87.746275 -53.519101 -10.235482 2.503955 -0.724610 -5.171630 15.009507 -18.426205 -1.812050 1.934732 45.245801 3.106512 15.670575 -25.858538 -5.505700 0.000000 -50.368401 11.324983 -1.050166 -2.891255 0.092032 -22.436972 -16.386748 1.849221 -2.666061 46.259573 -2.018582 -5.807618 -25.429521 2.317300 0.000000 -72.670800 -1.389694 -2.958097 1.839871 -0.576066 -2.825823 -1.979009 -4.642614 -2.838207 2.983794 10.127218 -20.493427 -11.822176 -0.925275 0.000615 -1.102791 0.000000 0.000000 0.000000 1.839256 18.555794 0.844936 -77.363561 14.980133 -0.950713 -2.713289 -38.983443 -0.006935 8.560195 1.827701 0.138599 -0.166708 0.021501 -0.000000 0.000000 0.000000 0.000000 0.000000 0.000000 0.000000 8.840018 -17.387137 0.360253 75.180579 -2.121281 -9.138550 2.770460 30.101107 0.001410 -11.154764 7.092529 -0.716816 0.192051 -0.124186 -0.000000 0.000000 0.000000 0.000000 0.000000 0.000000 0.000000 
18.510026 15.938079 2.404266 55.971258 -87.716786 -53.781497 -10.252086 2.450281 -0.796337 -5.370076 14.814639 -19.461699 -1.755154 2.081311 47.137560 3.206030 16.132460 -26.563399 -5.847400 0.000000 -50.258000 11.356746 -1.003985 -2.935291 0.122762 -22.310375 -17.421798 1.806184 -2.838824 48.131883 -2.061839 -5.929121 -26.156732 2.445400 -0.000000 -72.697900 -1.386754 -2.970048 1.983241 -0.576558 -2.832439 -1.941464 -4.666660 -2.841874 3.054814 10.222004 -20.499392 -11.979678 -0.919142 0.004176 -1.149632 0.000000 0.000000 0.000000 1.615535 18.899441 0.891199 -78.176969 15.051958 -1.167127 -2.721156 -38.404386 -0.006567 8.761830 1.809953 0.140578 -0.166166 0.018749 -0.000000 0.000000 0.000000 0.000000 0.000000 0.000000 0.000000 8.957219 -17.431245 0.396335 76.031214 -2.335253 -9.650334 2.805016 29.283574 0.001779 -11.230020 7.108101 -0.722937 0.191917 -0.121433 -0.000000 0.000000 0.000000 0.000000 0.000000 0.000000 0.000000 
